<svg width="76" height="76" viewBox="0 0 76 76" fill="none" xmlns="http://www.w3.org/2000/svg">
<g clip-path="url(#clip0_228_108)">
<path d="M38 75.5C58.7107 75.5 75.5 58.7107 75.5 38C75.5 17.2893 58.7107 0.5 38 0.5C17.2893 0.5 0.5 17.2893 0.5 38C0.5 58.7107 17.2893 75.5 38 75.5Z" fill="#B0D9B1"/>
<path d="M15.278 42.438H22.095V60.727H53.905V42.438H60.722V37.866H15.278V42.438ZM49.361 56.155H26.639V42.438H49.361V56.155Z" fill="white"/>
<path d="M24.342 35.853H51.633C54.1024 35.8204 56.4712 34.8696 58.278 33.186C59.1058 32.3301 59.7501 31.3141 60.1712 30.2004C60.5923 29.0866 60.7815 27.8985 60.727 26.709H56.178C56.2638 27.4904 56.1151 28.2796 55.751 28.9763C55.3868 29.6729 54.8236 30.2455 54.133 30.621C53.3552 31.014 52.5034 31.2388 51.633 31.281C44.513 31.281 40.272 17.691 40.272 15.281H35.728C35.728 17.796 31.638 31.281 24.367 31.281C23.4962 31.2414 22.6439 31.0164 21.867 30.621C21.1764 30.2455 20.6132 29.6729 20.249 28.9763C19.8849 28.2796 19.7362 27.4904 19.822 26.709H15.278C15.2293 27.8979 15.4212 29.0843 15.842 30.1973C16.2628 31.3102 16.9039 32.3267 17.727 33.186C19.5269 34.8616 21.8833 35.8116 24.342 35.853Z" fill="white"/>
<path d="M38 17.556C39.2581 17.556 40.278 16.5361 40.278 15.278C40.278 14.0199 39.2581 13 38 13C36.7419 13 35.722 14.0199 35.722 15.278C35.722 16.5361 36.7419 17.556 38 17.556Z" fill="white"/>
<path d="M17.5 28.4709C18.6046 28.4709 19.5 27.5755 19.5 26.4709C19.5 25.3664 18.6046 24.4709 17.5 24.4709C16.3954 24.4709 15.5 25.3664 15.5 26.4709C15.5 27.5755 16.3954 28.4709 17.5 28.4709Z" fill="white"/>
<path d="M58.385 28.4709C59.4896 28.4709 60.385 27.5755 60.385 26.4709C60.385 25.3664 59.4896 24.4709 58.385 24.4709C57.2804 24.4709 56.385 25.3664 56.385 26.4709C56.385 27.5755 57.2804 28.4709 58.385 28.4709Z" fill="white"/>
<path d="M15.278 42.477C16.5361 42.477 17.556 41.4571 17.556 40.199C17.556 38.9409 16.5361 37.921 15.278 37.921C14.0199 37.921 13 38.9409 13 40.199C13 41.4571 14.0199 42.477 15.278 42.477Z" fill="white"/>
<path d="M60.722 42.477C61.9801 42.477 63 41.4571 63 40.199C63 38.9409 61.9801 37.921 60.722 37.921C59.4639 37.921 58.444 38.9409 58.444 40.199C58.444 41.4571 59.4639 42.477 60.722 42.477Z" fill="white"/>
</g>
<defs>
<clipPath id="clip0_228_108">
<rect width="75" height="75" fill="white" transform="translate(0.5 0.5)"/>
</clipPath>
</defs>
</svg>
