<svg width="76" height="76" viewBox="0 0 76 76" fill="none" xmlns="http://www.w3.org/2000/svg">
<g clip-path="url(#clip0_228_97)">
<path d="M38 75.5C58.7107 75.5 75.5 58.7107 75.5 38C75.5 17.2893 58.7107 0.5 38 0.5C17.2893 0.5 0.5 17.2893 0.5 38C0.5 58.7107 17.2893 75.5 38 75.5Z" fill="#B0D9B1"/>
<path d="M59.875 60.864C60.29 60.8714 60.7024 60.7961 61.0879 60.6424C61.4735 60.4887 61.8246 60.2598 62.1207 59.9689C62.4169 59.678 62.6521 59.3311 62.8126 58.9483C62.9732 58.5655 63.0559 58.1546 63.0559 57.7395C63.0559 57.3244 62.9732 56.9135 62.8126 56.5307C62.6521 56.1479 62.4169 55.801 62.1207 55.5101C61.8246 55.2192 61.4735 54.9903 61.0879 54.8366C60.7024 54.6829 60.29 54.6076 59.875 54.615H58.563L41.6 24.931L46.965 15.557C47.1702 15.2007 47.3032 14.8074 47.3564 14.3996C47.4096 13.9919 47.382 13.5777 47.2751 13.1806C47.1682 12.7835 46.9842 12.4114 46.7335 12.0855C46.4828 11.7596 46.1703 11.4862 45.814 11.281C45.4576 11.0758 45.0644 10.9428 44.6566 10.8896C44.2489 10.8364 43.8347 10.864 43.4376 10.9709C43.0405 11.0778 42.6684 11.2618 42.3425 11.5125C42.0165 11.7632 41.7432 12.0757 41.538 12.432L38 18.635L34.464 12.435C34.0496 11.7153 33.3663 11.1898 32.5644 10.9739C31.7625 10.7581 30.9077 10.8696 30.188 11.284C29.4683 11.6984 28.9428 12.3817 28.7269 13.1836C28.511 13.9855 28.6226 14.8403 29.037 15.56L34.4 24.931L17.438 54.615H16.125C15.71 54.6076 15.2976 54.6829 14.912 54.8366C14.5265 54.9903 14.1754 55.2192 13.8792 55.5101C13.5831 55.801 13.3479 56.1479 13.1873 56.5307C13.0268 56.9135 12.9441 57.3244 12.9441 57.7395C12.9441 58.1546 13.0268 58.5655 13.1873 58.9483C13.3479 59.3311 13.5831 59.678 13.8792 59.9689C14.1754 60.2598 14.5265 60.4887 14.912 60.6424C15.2976 60.7961 15.71 60.8714 16.125 60.864H59.875ZM31.833 54.615L36.557 46.345C36.7024 46.0908 36.9124 45.8796 37.1657 45.7327C37.419 45.5858 37.7067 45.5085 37.9995 45.5085C38.2923 45.5085 38.5799 45.5858 38.8332 45.7327C39.0865 45.8796 39.2966 46.0908 39.442 46.345L44.166 54.615H31.833Z" fill="white" stroke="#B0D9B1"/>
</g>
<defs>
<clipPath id="clip0_228_97">
<rect width="75" height="75" fill="white" transform="translate(0.5 0.5)"/>
</clipPath>
</defs>
</svg>
