<svg width="76" height="76" viewBox="0 0 76 76" fill="none" xmlns="http://www.w3.org/2000/svg">
<g clip-path="url(#clip0_228_102)">
<path d="M38 75.5C58.7107 75.5 75.5 58.7107 75.5 38C75.5 17.2893 58.7107 0.5 38 0.5C17.2893 0.5 0.5 17.2893 0.5 38C0.5 58.7107 17.2893 75.5 38 75.5Z" fill="#B0D9B1"/>
<path d="M15.083 49.417H27.7L19.635 60.708C19.3145 61.1589 19.1862 61.7186 19.2784 62.264C19.3706 62.8095 19.6756 63.296 20.1265 63.6165C20.3498 63.7752 20.6021 63.8884 20.8691 63.9496C21.1361 64.0108 21.4125 64.0188 21.6826 63.9731C22.228 63.8809 22.7145 63.5759 23.035 63.125L32.795 49.417H35.92V61.917C35.92 62.4696 36.1395 62.9995 36.5303 63.3903C36.921 63.781 37.4509 64.0005 38.0035 64.0005C38.5561 64.0005 39.086 63.781 39.4768 63.3903C39.8675 62.9995 40.087 62.4696 40.087 61.917V49.417H43.212L53 63.125C53.3205 63.5759 53.807 63.8809 54.3525 63.9731C54.8979 64.0653 55.4576 63.937 55.9085 63.6165C56.3594 63.296 56.6645 62.8095 56.7566 62.264C56.8488 61.7186 56.7205 61.1589 56.4 60.708L48.3 49.417H60.917C61.4696 49.417 61.9995 49.1975 62.3903 48.8068C62.781 48.416 63.0005 47.8861 63.0005 47.3335C63.0005 46.7809 62.781 46.251 62.3903 45.8602C61.9995 45.4695 61.4696 45.25 60.917 45.25H58.833V20.25C58.833 18.5924 58.1745 17.0027 57.0024 15.8306C55.8303 14.6585 54.2406 14 52.583 14H23.417C21.7594 14 20.1697 14.6585 18.9976 15.8306C17.8255 17.0027 17.167 18.5924 17.167 20.25V45.25H15.083C14.5304 45.25 14.0005 45.4695 13.6098 45.8602C13.219 46.251 12.9995 46.7809 12.9995 47.3335C12.9995 47.8861 13.219 48.416 13.6098 48.8068C14.0005 49.1975 14.5304 49.417 15.083 49.417ZM23.416 18.167H52.583C53.1355 18.167 53.6653 18.3865 54.0559 18.7771C54.4466 19.1677 54.666 19.6976 54.666 20.25V36.75L47.635 31.125C47.2347 30.806 46.7309 30.6455 46.2197 30.6743C45.7086 30.7031 45.226 30.919 44.864 31.281L40.083 36.052L31.135 27.114C30.7461 26.7354 30.2248 26.5235 29.682 26.5235C29.1392 26.5235 28.6179 26.7354 28.229 27.114L21.329 33.624V20.25C21.329 19.976 21.3831 19.7048 21.488 19.4517C21.593 19.1987 21.7469 18.9688 21.9409 18.7753C22.1348 18.5818 22.365 18.4285 22.6183 18.3241C22.8716 18.2197 23.142 18.1663 23.416 18.167Z" fill="white"/>
<path d="M41.143 28.381C42.7999 28.381 44.143 27.0378 44.143 25.381C44.143 23.7241 42.7999 22.381 41.143 22.381C39.4862 22.381 38.143 23.7241 38.143 25.381C38.143 27.0378 39.4862 28.381 41.143 28.381Z" fill="white"/>
</g>
<defs>
<clipPath id="clip0_228_102">
<rect width="75" height="75" fill="white" transform="translate(0.5 0.5)"/>
</clipPath>
</defs>
</svg>
