<svg width="76" height="76" viewBox="0 0 76 76" fill="none" xmlns="http://www.w3.org/2000/svg">
<g clip-path="url(#clip0_228_127)">
<path d="M38 75.5C58.7107 75.5 75.5 58.7107 75.5 38C75.5 17.2893 58.7107 0.5 38 0.5C17.2893 0.5 0.5 17.2893 0.5 38C0.5 58.7107 17.2893 75.5 38 75.5Z" fill="#B0D9B1"/>
<path d="M58.79 56.049L55.93 32.091C55.7008 30.5225 54.9054 29.0921 53.6939 28.0698C52.4824 27.0476 50.9387 26.5041 49.354 26.542H47.374V22.375C47.374 19.8886 46.3862 17.504 44.6281 15.7459C42.8699 13.9877 40.4854 13 37.999 13C35.5126 13 33.128 13.9877 31.3698 15.7459C29.6117 17.504 28.624 19.8886 28.624 22.375V26.542H26.645C25.0596 26.5031 23.5148 27.0461 22.3025 28.0685C21.0902 29.0909 20.2942 30.5218 20.065 32.091L17.205 56.049C17.1028 56.8968 17.1838 57.7567 17.4426 58.5704C17.7014 59.3842 18.1319 60.1329 18.705 60.766C19.3458 61.4764 20.1301 62.0428 21.0059 62.4279C21.8817 62.813 22.8293 63.008 23.786 63H52.214C53.1693 63.0068 54.1153 62.8113 54.9897 62.4263C55.8641 62.0412 56.647 61.4754 57.287 60.766C57.8603 60.1331 58.2909 59.3844 58.5497 58.5705C58.8085 57.7567 58.8894 56.8968 58.787 56.049H58.79ZM32.79 22.375C32.79 20.9936 33.3387 19.6688 34.3155 18.692C35.2923 17.7153 36.6171 17.1665 37.9985 17.1665C39.3798 17.1665 40.7046 17.7153 41.6814 18.692C42.6582 19.6688 43.207 20.9936 43.207 22.375V26.542H32.79V22.375ZM30.707 40.6C29.9311 40.6008 29.1753 40.3537 28.5497 39.8949C27.924 39.4361 27.4612 38.7895 27.2288 38.0493C26.9963 37.3091 27.0062 36.514 27.2572 35.7799C27.5082 35.0458 27.987 34.411 28.624 33.968V36.954C28.624 37.5066 28.8435 38.0365 29.2342 38.4273C29.6249 38.818 30.1549 39.0375 30.7075 39.0375C31.26 39.0375 31.79 38.818 32.1807 38.4273C32.5715 38.0365 32.791 37.5066 32.791 36.954V33.972C33.4262 34.4156 33.9035 35.0503 34.1533 35.7838C34.4031 36.5172 34.4125 37.3112 34.1801 38.0504C33.9477 38.7896 33.4856 39.4353 32.861 39.8939C32.2364 40.3524 31.4818 40.5997 30.707 40.6ZM45.29 40.6C44.5141 40.6008 43.7583 40.3537 43.1327 39.8949C42.507 39.4361 42.0442 38.7895 41.8118 38.0493C41.5793 37.3091 41.5892 36.514 41.8402 35.7799C42.0912 35.0458 42.57 34.411 43.207 33.968V36.954C43.207 37.5066 43.4265 38.0365 43.8172 38.4273C44.2079 38.818 44.7379 39.0375 45.2905 39.0375C45.843 39.0375 46.373 38.818 46.7637 38.4273C47.1545 38.0365 47.374 37.5066 47.374 36.954V33.972C48.0092 34.4156 48.4865 35.0503 48.7363 35.7838C48.9861 36.5172 48.9955 37.3112 48.7631 38.0504C48.5307 38.7896 48.0686 39.4353 47.444 39.8939C46.8194 40.3524 46.0648 40.5997 45.29 40.6Z" fill="white"/>
</g>
<defs>
<clipPath id="clip0_228_127">
<rect width="75" height="75" fill="white" transform="translate(0.5 0.5)"/>
</clipPath>
</defs>
</svg>
