<svg width="76" height="76" viewBox="0 0 76 76" fill="none" xmlns="http://www.w3.org/2000/svg">
<g clip-path="url(#clip0_228_137)">
<path d="M38 75.5C58.7107 75.5 75.5 58.7107 75.5 38C75.5 17.2893 58.7107 0.5 38 0.5C17.2893 0.5 0.5 17.2893 0.5 38C0.5 58.7107 17.2893 75.5 38 75.5Z" fill="#B0D9B1"/>
<path d="M61.891 41.899V54.299C61.8984 54.3942 61.8862 54.4899 61.8553 54.5802C61.8243 54.6706 61.7752 54.7536 61.7109 54.8242C61.6467 54.8948 61.5686 54.9516 61.4816 54.9909C61.3946 55.0303 61.3005 55.0514 61.205 55.053H58.087C57.8842 55.0525 57.6894 54.9738 57.5431 54.8334C57.3967 54.693 57.31 54.5016 57.301 54.299V45.828H18.634V54.303C18.6414 54.3982 18.6292 54.4939 18.5983 54.5842C18.5673 54.6746 18.5182 54.7576 18.4539 54.8282C18.3896 54.8988 18.3116 54.9556 18.2246 54.9949C18.1376 55.0343 18.0435 55.0554 17.948 55.057H14.83C14.7324 55.0557 14.6359 55.0352 14.5462 54.9966C14.4565 54.958 14.3753 54.902 14.3072 54.832C14.2391 54.762 14.1855 54.6792 14.1495 54.5884C14.1134 54.4977 14.0956 54.4007 14.097 54.303V22.638C14.0969 22.5433 14.1161 22.4495 14.1533 22.3623C14.1905 22.2752 14.2451 22.1965 14.3136 22.131C14.3821 22.0656 14.4632 22.0147 14.552 21.9815C14.6408 21.9484 14.7354 21.9336 14.83 21.938H17.948C18.0404 21.9339 18.1326 21.9493 18.2187 21.9832C18.3047 22.0171 18.3826 22.0688 18.4474 22.1348C18.5121 22.2009 18.5622 22.2798 18.5943 22.3665C18.6265 22.4532 18.64 22.5457 18.634 22.638V41.186H61.205C61.2981 41.1835 61.3908 41.2004 61.477 41.2356C61.5631 41.2709 61.641 41.3238 61.7056 41.3909C61.7702 41.4581 61.82 41.5379 61.852 41.6254C61.8839 41.7129 61.8972 41.8061 61.891 41.899Z" fill="white"/>
<path d="M60.872 41.898V52.798C60.872 53.298 60.861 53.798 60.872 54.292V54.313C60.872 54.376 60.846 54.513 60.883 54.244C60.872 54.302 60.804 54.434 60.915 54.181C60.846 54.334 60.931 54.155 60.963 54.128C61.084 54.044 61.116 54.022 61.047 54.065C60.978 54.108 61.01 54.091 61.147 54.028C60.973 54.091 61.321 54.039 61.179 54.023C61.116 54.018 61.047 54.023 60.979 54.023H58.579C58.4297 54.0098 58.2794 54.0098 58.13 54.023C58.125 54.023 58.109 54.018 58.104 54.023L58.241 54.044C58.067 53.996 58.262 54.065 58.289 54.081C58.131 53.997 58.3 54.102 58.321 54.123C58.194 54.002 58.326 54.149 58.342 54.176C58.215 53.976 58.384 54.345 58.347 54.202C58.315 54.091 58.373 54.281 58.358 54.308C58.374 54.282 58.358 54.202 58.358 54.176V45.808C58.3537 45.5293 58.241 45.2633 58.0439 45.0662C57.8468 44.8691 57.5807 44.7564 57.302 44.752H20.202C19.702 44.752 19.194 44.741 18.692 44.752H18.629C18.3503 44.7564 18.0843 44.8691 17.8872 45.0662C17.6901 45.2633 17.5774 45.5293 17.573 45.808V53.119C17.573 53.499 17.578 53.879 17.573 54.259C17.5704 54.289 17.5704 54.3191 17.573 54.349C17.584 54.492 17.636 54.096 17.568 54.312C17.668 54.022 17.478 54.365 17.668 54.133L17.62 54.181C17.6812 54.1082 17.765 54.0579 17.858 54.038C17.694 54.096 17.879 54.006 17.932 54.033C17.8726 54.0252 17.8124 54.0252 17.753 54.033H15.143C15.053 54.033 14.958 54.028 14.869 54.033C14.8515 54.0304 14.8336 54.0304 14.816 54.033C14.805 54.044 13.533 53.716 14.948 54.054C14.837 54.022 14.858 54.033 15.001 54.091C14.901 54.033 14.922 54.049 15.049 54.133C14.875 53.99 15.155 54.323 15.049 54.128C15.149 54.318 15.107 54.26 15.086 54.181C15.551 56.007 15.102 54.334 15.112 54.318C15.122 54.302 15.112 54.297 15.112 54.286C15.1358 53.871 15.1358 53.455 15.112 53.04V22.94C15.1278 22.837 15.1278 22.7321 15.112 22.629V22.624C15.154 22.682 15.043 22.862 15.107 22.698C15.091 22.74 15.07 22.782 15.054 22.825C15.112 22.725 15.096 22.746 15.006 22.878L14.895 22.957C14.974 22.915 14.969 22.909 14.884 22.946C14.863 22.957 14.842 22.962 14.821 22.972C14.932 22.94 14.905 22.94 14.747 22.967C14.752 22.967 14.837 22.962 14.858 22.962C15.106 22.957 15.349 22.962 15.597 22.962H17.935C17.9598 22.9611 17.9846 22.9627 18.009 22.967C17.91 22.9747 17.8113 22.9486 17.729 22.893C17.882 22.977 17.687 22.851 17.671 22.835C17.745 22.914 17.729 22.893 17.623 22.766C17.565 22.608 17.554 22.587 17.591 22.692C17.549 22.407 17.58 22.623 17.58 22.703C17.585 23.416 17.58 24.128 17.58 24.841V41.178C17.5844 41.4567 17.6971 41.7228 17.8942 41.9199C18.0913 42.117 18.3573 42.2297 18.636 42.234H59.705C60.205 42.234 60.705 42.239 61.199 42.234H61.225C61.267 42.234 61.368 42.26 61.225 42.229C61.193 42.224 60.951 42.113 61.051 42.176C61.151 42.239 60.961 42.097 60.967 42.102C61.094 42.213 60.935 42.054 60.919 42.033C60.967 42.096 60.951 42.186 60.887 41.959C60.876 41.959 60.861 41.716 60.871 41.906C60.8795 42.1803 60.9944 42.4406 61.1914 42.6316C61.3884 42.8227 61.6521 42.9295 61.9265 42.9295C62.201 42.9295 62.4646 42.8227 62.6617 42.6316C62.8587 42.4406 62.9736 42.1803 62.982 41.906C62.978 41.6651 62.9257 41.4275 62.8281 41.2072C62.7305 40.9869 62.5897 40.7884 62.414 40.6235C62.2383 40.4586 62.0313 40.3307 61.8053 40.2473C61.5792 40.1639 61.3387 40.1267 61.098 40.138H20.432C19.857 40.138 19.281 40.122 18.706 40.138H18.632L19.688 41.194V23.168C19.688 22.989 19.693 22.814 19.688 22.635C19.6913 22.3078 19.6038 21.986 19.4352 21.7055C19.2666 21.425 19.0236 21.1967 18.733 21.046C18.3766 20.8945 17.9894 20.8294 17.603 20.856H15.375C15.19 20.856 15 20.851 14.815 20.856C14.3427 20.8579 13.8896 21.0435 13.5516 21.3734C13.2137 21.7034 13.0173 22.1519 13.004 22.624C12.993 22.951 13.004 23.279 13.004 23.606V54.317C13.0134 54.7958 13.2067 55.2526 13.5439 55.5926C13.8811 55.9327 14.3363 56.1298 14.815 56.143C15 56.148 15.19 56.143 15.375 56.143H17.603C17.9905 56.1723 18.3791 56.1035 18.733 55.943C19.0248 55.7792 19.2673 55.5402 19.4355 55.251C19.6036 54.9617 19.6911 54.6326 19.689 54.298C19.721 53.237 19.689 52.171 19.689 51.11V45.81L18.633 46.866H55.733C56.233 46.866 56.741 46.882 57.243 46.866H57.306L56.25 45.81V53.998C56.2167 54.4202 56.3044 54.8431 56.503 55.217C56.6723 55.4911 56.9073 55.7185 57.1867 55.8788C57.4661 56.0391 57.781 56.1272 58.103 56.135C58.235 56.14 58.367 56.135 58.503 56.135H60.25C60.6904 56.1581 61.132 56.144 61.57 56.093C61.9835 55.9967 62.3506 55.7597 62.6087 55.4226C62.8668 55.0855 62.9998 54.6693 62.985 54.245V47.235C62.985 45.488 63.011 43.735 62.985 41.983V41.893C62.9824 41.6138 62.8703 41.3467 62.6729 41.1492C62.4754 40.9517 62.2083 40.8396 61.929 40.837C61.6503 40.8444 61.3852 40.9587 61.1884 41.1562C60.9916 41.3537 60.8784 41.6193 60.872 41.898Z" fill="white"/>
<path d="M26.621 37.8381C29.0809 37.8381 31.075 35.8439 31.075 33.3841C31.075 30.9242 29.0809 28.9301 26.621 28.9301C24.1612 28.9301 22.167 30.9242 22.167 33.3841C22.167 35.8439 24.1612 37.8381 26.621 37.8381Z" fill="white"/>
<path d="M30.0041 33.383C30.0041 33.495 29.999 33.608 29.993 33.72C29.9964 33.7811 29.9911 33.8424 29.9771 33.902C29.9771 33.902 30.025 33.624 29.982 33.832C29.9437 34.0457 29.8919 34.2568 29.827 34.464C29.811 34.507 29.795 34.555 29.779 34.598C29.763 34.641 29.747 34.818 29.758 34.668C29.763 34.54 29.7691 34.641 29.7421 34.7C29.7151 34.759 29.694 34.807 29.667 34.861C29.5716 35.0492 29.4623 35.23 29.34 35.402C29.317 35.4418 29.2902 35.4793 29.26 35.514C29.335 35.498 29.3991 35.348 29.2761 35.487C29.2061 35.567 29.1371 35.642 29.0671 35.723C29.0031 35.787 28.9331 35.857 28.8671 35.916C28.8339 35.9492 28.7981 35.9796 28.76 36.007C28.7321 36.0288 28.7053 36.0522 28.68 36.077C28.616 36.125 28.643 36.109 28.76 36.018C28.749 36.061 28.5671 36.152 28.5301 36.179C28.4441 36.238 28.353 36.291 28.262 36.345C28.1702 36.3987 28.0754 36.4471 27.978 36.49C27.9374 36.5139 27.8945 36.5336 27.85 36.549C27.984 36.49 28.016 36.479 27.941 36.506C27.909 36.517 27.8771 36.533 27.8411 36.543C27.6489 36.6121 27.452 36.6676 27.2521 36.709L27.075 36.741C26.914 36.773 27.1291 36.752 27.1451 36.736C27.1131 36.779 26.8401 36.763 26.7761 36.763C26.5621 36.768 26.3531 36.752 26.1441 36.742C25.9831 36.731 26.417 36.796 26.176 36.747C26.128 36.736 26.076 36.731 26.031 36.72C25.913 36.699 25.7951 36.666 25.6831 36.634C25.5921 36.607 25.5011 36.58 25.4101 36.548C25.4151 36.548 25.2761 36.505 25.2761 36.5C25.2811 36.537 25.49 36.6 25.303 36.511C25.101 36.4158 24.9058 36.3066 24.719 36.184C24.682 36.157 24.5001 36.066 24.4891 36.023C24.4941 36.055 24.6551 36.162 24.5431 36.06C24.5001 36.023 24.452 35.985 24.409 35.948C24.2476 35.797 24.0941 35.6378 23.9491 35.471C23.8491 35.359 23.954 35.514 23.986 35.525C23.9554 35.4907 23.9286 35.4531 23.906 35.413C23.852 35.338 23.799 35.258 23.751 35.177C23.703 35.096 23.644 34.995 23.596 34.904C23.569 34.85 23.542 34.797 23.516 34.749C23.49 34.701 23.479 34.54 23.484 34.685C23.489 34.83 23.4791 34.664 23.4631 34.615C23.4471 34.566 23.431 34.524 23.415 34.481L23.335 34.208C23.308 34.101 23.2871 33.994 23.2651 33.892C23.2281 33.692 23.2171 33.887 23.2651 33.924C23.2441 33.908 23.249 33.763 23.249 33.742C23.234 33.5317 23.2323 33.3206 23.2441 33.11C23.2506 33.0603 23.2543 33.0102 23.2551 32.96C23.2711 32.714 23.2181 33.147 23.2501 32.992C23.2711 32.874 23.293 32.756 23.32 32.639C23.336 32.564 23.4381 32.077 23.5021 32.061C23.4861 32.066 23.402 32.27 23.475 32.12C23.502 32.066 23.5231 32.013 23.5501 31.959C23.6006 31.8539 23.6577 31.7521 23.721 31.654C23.775 31.563 23.8331 31.477 23.8921 31.392C23.9148 31.3521 23.9417 31.3145 23.9721 31.28C23.9721 31.28 23.8011 31.48 23.9351 31.334C24.0691 31.188 24.2131 31.023 24.3691 30.879C24.4121 30.842 24.455 30.804 24.503 30.767C24.642 30.644 24.4921 30.708 24.4761 30.783C24.4871 30.74 24.663 30.649 24.706 30.622C24.8818 30.5053 25.066 30.4016 25.2571 30.312C25.3161 30.285 25.4661 30.275 25.3211 30.28C25.1761 30.285 25.3001 30.291 25.3581 30.269C25.4581 30.237 25.558 30.199 25.663 30.169C25.768 30.139 25.85 30.121 25.941 30.099C25.9889 30.0874 26.0373 30.0784 26.0861 30.072C26.134 30.0624 26.1824 30.0554 26.2311 30.051C26.1844 30.0554 26.1379 30.0624 26.092 30.072C26.2007 30.0462 26.3127 30.0371 26.424 30.045C26.5367 30.0397 26.6491 30.0397 26.7611 30.045C26.8611 30.05 26.961 30.056 27.055 30.066C27.269 30.082 26.9851 30.055 26.9911 30.055C27.0121 30.034 27.1681 30.087 27.2051 30.092C27.4396 30.143 27.6705 30.2099 27.896 30.292C28.089 30.356 27.842 30.265 27.837 30.265C27.88 30.26 27.9871 30.335 28.0301 30.356C28.1371 30.41 28.239 30.463 28.34 30.522C28.4412 30.5814 28.5394 30.6458 28.6341 30.715C28.6611 30.731 28.811 30.881 28.693 30.758C28.575 30.635 28.72 30.779 28.747 30.806C28.9245 30.9567 29.0894 31.1216 29.24 31.299C29.256 31.32 29.417 31.476 29.288 31.353C29.159 31.23 29.304 31.38 29.331 31.412C29.406 31.519 29.476 31.626 29.54 31.739C29.604 31.852 29.652 31.939 29.706 32.05C29.727 32.093 29.7431 32.136 29.7651 32.178C29.7971 32.253 29.786 32.221 29.728 32.087C29.739 32.119 29.7551 32.151 29.7651 32.187C29.8425 32.4135 29.9069 32.6442 29.958 32.878C29.969 32.926 29.9741 32.978 29.9851 33.023C29.9961 33.103 29.9961 33.071 29.9741 32.923C29.9803 32.9601 29.984 32.9975 29.9851 33.035C29.9961 33.115 30.001 33.254 30.006 33.388C30.0146 33.6663 30.1311 33.9303 30.3309 34.1241C30.5307 34.3179 30.7982 34.4263 31.0765 34.4263C31.3549 34.4263 31.6224 34.3179 31.8222 34.1241C32.022 33.9303 32.1386 33.6663 32.1471 33.388C32.1353 32.2508 31.7775 31.1442 31.1214 30.2153C30.4653 29.2864 29.5419 28.5793 28.4741 28.188C27.4177 27.8123 26.2719 27.7673 25.1893 28.0591C24.1067 28.3508 23.1386 28.9654 22.4141 29.821C21.8395 30.499 21.4372 31.3056 21.2411 32.1723C21.0451 33.039 21.0611 33.9403 21.2879 34.7995C21.5147 35.6587 21.9455 36.4505 22.5438 37.1075C23.1421 37.7646 23.8901 38.2675 24.7244 38.5736C25.5586 38.8797 26.4544 38.9798 27.3357 38.8656C28.2169 38.7514 29.0576 38.4262 29.7863 37.9175C30.5149 37.4089 31.11 36.7318 31.521 35.944C31.932 35.1561 32.1468 34.2806 32.1471 33.392C32.1392 33.1137 32.0233 32.8494 31.824 32.6551C31.6246 32.4608 31.3574 32.3518 31.079 32.3512C30.8006 32.3505 30.5329 32.4583 30.3326 32.6517C30.1323 32.845 30.0152 33.1088 30.006 33.387L30.0041 33.383Z" fill="white"/>
<path d="M61.89 38.633V42.027C61.8962 41.9324 61.8825 41.8376 61.8499 41.7486C61.8172 41.6596 61.7662 41.5785 61.7003 41.5103C61.6343 41.4422 61.5549 41.3887 61.467 41.3532C61.3791 41.3176 61.2848 41.3009 61.19 41.304H34.159V28.884H52.179C54.7571 28.897 57.2254 29.9295 59.0449 31.756C60.8643 33.5826 61.8871 36.0549 61.89 38.633Z" fill="white"/>
<path d="M60.841 38.632V42.026H62.982C62.9803 41.7888 62.9319 41.5542 62.8395 41.3356C62.7471 41.1171 62.6125 40.9189 62.4435 40.7524C62.2745 40.5859 62.0744 40.4543 61.8545 40.3652C61.6346 40.2761 61.3993 40.2312 61.162 40.233C61.044 40.228 60.926 40.233 60.809 40.233H37.671C36.52 40.233 35.364 40.19 34.218 40.233H34.17L35.241 41.304V28.904L34.17 29.975H52.179C52.356 29.975 52.527 29.98 52.704 29.991C52.804 29.996 52.904 30.002 52.998 30.012C53.1222 30.0049 53.2467 30.0174 53.367 30.049C53.308 30.001 53.158 30.017 53.303 30.038C53.351 30.043 53.403 30.054 53.448 30.059C53.555 30.075 53.662 30.096 53.769 30.118C53.983 30.161 54.192 30.209 54.406 30.268C54.606 30.322 54.797 30.38 54.989 30.445C55.08 30.477 55.171 30.509 55.257 30.545C55.3738 30.5699 55.4858 30.613 55.589 30.673C55.578 30.662 55.353 30.566 55.53 30.652C55.573 30.673 55.616 30.689 55.658 30.711C55.744 30.748 55.829 30.791 55.915 30.834C56.108 30.934 56.295 31.027 56.477 31.134C56.8322 31.343 57.1754 31.5717 57.505 31.819C57.628 31.91 57.305 31.653 57.484 31.803C57.522 31.835 57.559 31.862 57.591 31.894C57.666 31.953 57.736 32.012 57.805 32.076C57.966 32.215 58.116 32.36 58.265 32.504C58.399 32.638 58.527 32.772 58.65 32.911L58.859 33.152L58.95 33.259C58.971 33.286 59.137 33.468 59.02 33.345C58.903 33.222 59.1 33.457 59.127 33.49C59.191 33.576 59.25 33.661 59.309 33.747C59.427 33.924 59.539 34.1 59.646 34.282C59.7427 34.4427 59.8337 34.6094 59.919 34.782C59.962 34.868 60.005 34.953 60.042 35.039C60.079 35.125 60.192 35.275 60.187 35.36C60.187 35.248 60.117 35.183 60.16 35.301C60.176 35.344 60.197 35.387 60.214 35.435C60.251 35.535 60.289 35.635 60.326 35.735C60.396 35.935 60.46 36.142 60.519 36.351C60.631 36.763 60.696 37.175 60.776 37.598C60.771 37.571 60.749 37.341 60.765 37.534L60.781 37.679C60.792 37.779 60.797 37.879 60.808 37.973C60.8321 38.1952 60.8428 38.4186 60.84 38.642C60.8357 38.7854 60.8601 38.9281 60.9119 39.0618C60.9637 39.1955 61.0419 39.3174 61.1417 39.4204C61.2416 39.5233 61.3611 39.6052 61.4931 39.661C61.6252 39.7169 61.7671 39.7457 61.9105 39.7457C62.0539 39.7457 62.1959 39.7169 62.3279 39.661C62.46 39.6052 62.5795 39.5233 62.6793 39.4204C62.7792 39.3174 62.8573 39.1955 62.9091 39.0618C62.961 38.9281 62.9854 38.7854 62.981 38.642C62.9747 35.8708 61.9058 33.2076 59.9947 31.2008C58.0836 29.194 55.4756 27.9966 52.708 27.855C52.269 27.834 51.83 27.839 51.391 27.839H38.404C37.017 27.839 35.625 27.812 34.234 27.839H34.17C33.8873 27.8434 33.6175 27.9577 33.4176 28.1576C33.2176 28.3575 33.1034 28.6273 33.099 28.91V41.31C33.1034 41.5927 33.2176 41.8626 33.4176 42.0625C33.6175 42.2624 33.8873 42.3766 34.17 42.381H58.175C59.175 42.381 60.183 42.397 61.184 42.381C61.248 42.381 61.318 42.424 61.189 42.376C61.141 42.36 60.889 42.231 61.039 42.338C61.018 42.322 60.852 42.167 60.969 42.295C60.819 42.134 60.869 42.166 60.91 42.241L60.846 42.112C60.83 41.941 60.83 41.912 60.835 42.037C60.8307 42.1804 60.8551 42.3231 60.9069 42.4568C60.9588 42.5905 61.0369 42.7125 61.1367 42.8154C61.2366 42.9183 61.3561 43.0002 61.4881 43.0561C61.6202 43.112 61.7621 43.1408 61.9055 43.1408C62.0489 43.1408 62.1909 43.112 62.3229 43.0561C62.455 43.0002 62.5745 42.9183 62.6743 42.8154C62.7742 42.7125 62.8523 42.5905 62.9041 42.4568C62.956 42.3231 62.9804 42.1804 62.976 42.037V38.639C62.9767 38.3558 62.8648 38.0839 62.665 37.8831C62.5661 37.7837 62.4485 37.7047 62.319 37.6508C62.1896 37.5968 62.0508 37.5688 61.9105 37.5685C61.6273 37.5679 61.3554 37.6797 61.1546 37.8796C60.9539 38.0794 60.8407 38.3508 60.84 38.634L60.841 38.632Z" fill="white"/>
</g>
<defs>
<clipPath id="clip0_228_137">
<rect width="75" height="75" fill="white" transform="translate(0.5 0.5)"/>
</clipPath>
</defs>
</svg>
