<svg width="76" height="76" viewBox="0 0 76 76" fill="none" xmlns="http://www.w3.org/2000/svg">
<g clip-path="url(#clip0_228_121)">
<path d="M38 75.5C58.7107 75.5 75.5 58.7107 75.5 38C75.5 17.2893 58.7107 0.5 38 0.5C17.2893 0.5 0.5 17.2893 0.5 38C0.5 58.7107 17.2893 75.5 38 75.5Z" fill="#B0D9B1"/>
<path d="M48.705 14C50.1971 14.0435 51.6569 14.4444 52.9619 15.1689C54.267 15.8935 55.3791 16.9206 56.205 18.164C58.0307 20.8623 59.0065 24.0456 59.0065 27.3035C59.0065 30.5614 58.0307 33.7447 56.205 36.443C54.9276 38.2919 53.0615 39.6536 50.911 40.306V61.797C50.911 62.3813 50.6789 62.9416 50.2658 63.3548C49.8526 63.7679 49.2923 64 48.708 64C48.1237 64 47.5634 63.7679 47.1502 63.3548C46.7371 62.9416 46.505 62.3813 46.505 61.797V40.306C44.3541 39.6539 42.488 38.2913 41.212 36.441C39.3864 33.7432 38.4107 30.5604 38.4107 27.303C38.4107 24.0456 39.3864 20.8628 41.212 18.165C42.0372 16.9209 43.1492 15.8932 44.4544 15.1684C45.7595 14.4436 47.2197 14.0429 48.712 14H48.705ZM24.667 17.111C24.667 16.5243 24.9 15.9617 25.3149 15.5469C25.7297 15.1321 26.2923 14.899 26.879 14.899C27.4657 14.899 28.0283 15.1321 28.4431 15.5469C28.858 15.9617 29.091 16.5243 29.091 17.111V36.611C30.0536 36.1798 30.8715 35.4805 31.447 34.5966C32.0225 33.7127 32.3311 32.6817 32.336 31.627V17.111C32.336 16.5243 32.569 15.9617 32.9839 15.5469C33.3987 15.1321 33.9613 14.899 34.548 14.899C35.1347 14.899 35.6973 15.1321 36.1121 15.5469C36.527 15.9617 36.76 16.5243 36.76 17.111V31.624C36.7543 33.8587 35.9937 36.026 34.6016 37.7742C33.2095 39.5224 31.2677 40.749 29.091 41.255V60.899C29.091 61.4857 28.858 62.0483 28.4431 62.4631C28.0283 62.8779 27.4657 63.111 26.879 63.111C26.2923 63.111 25.7297 62.8779 25.3149 62.4631C24.9 62.0483 24.667 61.4857 24.667 60.899V41.255C22.4899 40.7494 20.5476 39.5229 19.1552 37.7747C17.7627 36.0264 17.0019 33.859 16.996 31.624V17.111C16.996 16.5243 17.229 15.9617 17.6439 15.5469C18.0587 15.1321 18.6213 14.899 19.208 14.899C19.7947 14.899 20.3573 15.1321 20.7721 15.5469C21.1869 15.9617 21.42 16.5243 21.42 17.111V31.624C21.425 32.6792 21.7339 33.7106 22.3098 34.5948C22.8856 35.479 23.704 36.1787 24.667 36.61V17.111Z" fill="white"/>
</g>
<defs>
<clipPath id="clip0_228_121">
<rect width="75" height="75" fill="white" transform="translate(0.5 0.5)"/>
</clipPath>
</defs>
</svg>
