<svg width="76" height="76" viewBox="0 0 76 76" fill="none" xmlns="http://www.w3.org/2000/svg">
<g clip-path="url(#clip0_228_132)">
<path d="M38 75.5C58.7107 75.5 75.5 58.7107 75.5 38C75.5 17.2893 58.7107 0.5 38 0.5C17.2893 0.5 0.5 17.2893 0.5 38C0.5 58.7107 17.2893 75.5 38 75.5Z" fill="#B0D9B1"/>
<path d="M63 36.781V34.438C62.9993 34.1554 62.9219 33.8782 62.7761 33.636C62.6303 33.3939 62.4215 33.1958 62.172 33.063L39.563 21V20.375H47.376C47.6868 20.3769 47.9911 20.2862 48.25 20.1143C48.5089 19.9424 48.7108 19.6973 48.8297 19.4102C48.9486 19.123 48.9792 18.807 48.9177 18.5024C48.8561 18.1978 48.7051 17.9184 48.484 17.7L46.453 15.688L48.484 13.672C48.7041 13.4534 48.8542 13.1742 48.9152 12.87C48.9761 12.5658 48.9451 12.2504 48.8262 11.9638C48.7073 11.6773 48.5058 11.4326 48.2473 11.261C47.9889 11.0894 47.6852 10.9985 47.375 11H38C37.7948 11 37.5916 11.0405 37.402 11.119C37.2124 11.1976 37.0402 11.3127 36.8951 11.4579C36.7501 11.603 36.6351 11.7753 36.5566 11.965C36.4782 12.1546 36.4379 12.3578 36.438 12.563V21L13.828 33.063C13.5785 33.1958 13.3697 33.3939 13.2239 33.636C13.0781 33.8782 13.0007 34.1554 13 34.438V36.782C13.0044 37.813 13.3001 38.8217 13.853 39.6919C14.4059 40.562 15.1935 41.2582 16.125 41.7V57.875H14.563C14.1554 57.8853 13.768 58.0545 13.4834 58.3464C13.1988 58.6383 13.0395 59.0298 13.0395 59.4375C13.0395 59.8452 13.1988 60.2368 13.4834 60.5287C13.768 60.8206 14.1554 60.9897 14.563 61H61.438C61.8456 60.9897 62.233 60.8206 62.5176 60.5287C62.8022 60.2368 62.9615 59.8452 62.9615 59.4375C62.9615 59.0298 62.8022 58.6383 62.5176 58.3464C62.233 58.0545 61.8456 57.8853 61.438 57.875H59.875V41.7C60.8066 41.2581 61.5943 40.5618 62.1473 39.6914C62.7002 38.8211 62.9958 37.8121 63 36.781ZM39.563 44.875C39.4601 44.5626 39.2611 44.2906 38.9946 44.0977C38.7281 43.9049 38.4075 43.8011 38.0785 43.8011C37.7495 43.8011 37.4289 43.9049 37.1624 44.0977C36.8959 44.2906 36.6969 44.5626 36.594 44.875C34.485 51.219 24.794 52.688 19.407 55.484V42.25C20.5921 42.0872 21.6905 41.5382 22.532 40.688C23.0412 41.2076 23.6489 41.6204 24.3196 41.9022C24.9903 42.1839 25.7105 42.3291 26.438 42.3291C27.1655 42.3291 27.8857 42.1839 28.5564 41.9022C29.2271 41.6204 29.8348 41.2076 30.344 40.688C30.8532 41.2077 31.461 41.6206 32.1318 41.9025C32.8026 42.1844 33.5229 42.3296 34.2505 42.3296C34.9781 42.3296 35.6984 42.1844 36.3692 41.9025C37.04 41.6206 37.6478 41.2077 38.157 40.688C38.6662 41.2077 39.274 41.6206 39.9448 41.9025C40.6156 42.1844 41.3359 42.3296 42.0635 42.3296C42.7911 42.3296 43.5114 42.1844 44.1822 41.9025C44.853 41.6206 45.4608 41.2077 45.97 40.688C46.4792 41.2077 47.087 41.6206 47.7578 41.9025C48.4286 42.1844 49.1489 42.3296 49.8765 42.3296C50.6041 42.3296 51.3244 42.1844 51.9952 41.9025C52.666 41.6206 53.2738 41.2077 53.783 40.688C54.6245 41.5383 55.7229 42.0873 56.908 42.25V55.531C51.281 52.547 41.609 51.266 39.563 44.875ZM16.125 35.375L38 23.7L59.875 35.375V36.781C59.8814 37.0928 59.8256 37.4028 59.7107 37.6928C59.5958 37.9828 59.4242 38.2469 59.206 38.4697C58.9877 38.6925 58.7272 38.8695 58.4397 38.9903C58.1522 39.1112 57.8434 39.1734 57.5315 39.1734C57.2196 39.1734 56.9108 39.1112 56.6233 38.9903C56.3358 38.8695 56.0753 38.6925 55.857 38.4697C55.6388 38.2469 55.4672 37.9828 55.3523 37.6928C55.2374 37.4028 55.1816 37.0928 55.188 36.781C55.1777 36.3735 55.0085 35.9861 54.7166 35.7015C54.4247 35.4168 54.0332 35.2576 53.6255 35.2576C53.2178 35.2576 52.8263 35.4168 52.5344 35.7015C52.2425 35.9861 52.0733 36.3735 52.063 36.781C52.0694 37.0928 52.0136 37.4028 51.8987 37.6928C51.7838 37.9828 51.6122 38.2469 51.394 38.4697C51.1757 38.6925 50.9152 38.8695 50.6277 38.9903C50.3402 39.1112 50.0314 39.1734 49.7195 39.1734C49.4076 39.1734 49.0989 39.1112 48.8113 38.9903C48.5238 38.8695 48.2633 38.6925 48.045 38.4697C47.8268 38.2469 47.6552 37.9828 47.5403 37.6928C47.4254 37.4028 47.3696 37.0928 47.376 36.781C47.376 36.3666 47.2114 35.9692 46.9184 35.6762C46.6253 35.3831 46.2279 35.2185 45.8135 35.2185C45.3991 35.2185 45.0017 35.3831 44.7086 35.6762C44.4156 35.9692 44.251 36.3666 44.251 36.781C44.251 37.4027 44.004 37.9989 43.5645 38.4385C43.1249 38.8781 42.5287 39.125 41.907 39.125C41.2853 39.125 40.6891 38.8781 40.2495 38.4385C39.81 37.9989 39.563 37.4027 39.563 36.781C39.5527 36.3735 39.3835 35.9861 39.0916 35.7015C38.7997 35.4168 38.4082 35.2576 38.0005 35.2576C37.5928 35.2576 37.2013 35.4168 36.9094 35.7015C36.6175 35.9861 36.4483 36.3735 36.438 36.781C36.4444 37.0928 36.3886 37.4028 36.2737 37.6928C36.1588 37.9828 35.9872 38.2469 35.769 38.4697C35.5507 38.6925 35.2902 38.8695 35.0027 38.9903C34.7151 39.1112 34.4064 39.1734 34.0945 39.1734C33.7826 39.1734 33.4739 39.1112 33.1863 38.9903C32.8988 38.8695 32.6383 38.6925 32.42 38.4697C32.2018 38.2469 32.0302 37.9828 31.9153 37.6928C31.8004 37.4028 31.7446 37.0928 31.751 36.781C31.751 36.3666 31.5864 35.9692 31.2934 35.6762C31.0003 35.3831 30.6029 35.2185 30.1885 35.2185C29.7741 35.2185 29.3767 35.3831 29.0836 35.6762C28.7906 35.9692 28.626 36.3666 28.626 36.781C28.626 37.4027 28.379 37.9989 27.9395 38.4385C27.4999 38.8781 26.9037 39.125 26.282 39.125C25.6603 39.125 25.0641 38.8781 24.6245 38.4385C24.185 37.9989 23.938 37.4027 23.938 36.781C23.938 36.3666 23.7734 35.9692 23.4804 35.6762C23.1873 35.3831 22.7899 35.2185 22.3755 35.2185C21.9611 35.2185 21.5637 35.3831 21.2706 35.6762C20.9776 35.9692 20.813 36.3666 20.813 36.781C20.8003 37.3942 20.5479 37.9779 20.1098 38.4071C19.6716 38.8362 19.0828 39.0766 18.4695 39.0766C17.8562 39.0766 17.2674 38.8362 16.8292 38.4071C16.3911 37.9779 16.1387 37.3942 16.126 36.781L16.125 35.375Z" fill="white"/>
<path d="M21.453 57.875H54.657H54.656M39.563 17.25H43.609H43.61C43.3416 17.087 43.1197 16.8576 42.9657 16.584C42.8117 16.3103 42.7308 16.0015 42.7308 15.6875C42.7308 15.3735 42.8117 15.0648 42.9657 14.7911C43.1197 14.5174 43.3416 14.288 43.61 14.125M63 36.781V34.438C62.9993 34.1554 62.9219 33.8782 62.7761 33.636C62.6303 33.3939 62.4215 33.1958 62.172 33.063L39.563 21V20.375H47.376C47.6868 20.3769 47.9911 20.2862 48.25 20.1143C48.5089 19.9424 48.7108 19.6973 48.8297 19.4102C48.9486 19.123 48.9792 18.807 48.9177 18.5024C48.8561 18.1978 48.7051 17.9184 48.484 17.7L46.453 15.688L48.484 13.672C48.7041 13.4534 48.8542 13.1742 48.9152 12.87C48.9761 12.5658 48.9451 12.2504 48.8262 11.9638C48.7073 11.6773 48.5058 11.4326 48.2473 11.261C47.9889 11.0894 47.6852 10.9985 47.375 11H38C37.7948 11 37.5916 11.0405 37.402 11.119C37.2124 11.1976 37.0402 11.3127 36.8951 11.4579C36.7501 11.603 36.6351 11.7753 36.5566 11.965C36.4782 12.1546 36.4379 12.3578 36.438 12.563V21L13.828 33.063C13.5785 33.1958 13.3697 33.3939 13.2239 33.636C13.0781 33.8782 13.0007 34.1554 13 34.438V36.782C13.0044 37.813 13.3001 38.8217 13.853 39.6919C14.4059 40.562 15.1935 41.2582 16.125 41.7V57.875H14.563C14.1554 57.8853 13.768 58.0545 13.4834 58.3464C13.1988 58.6383 13.0395 59.0298 13.0395 59.4375C13.0395 59.8452 13.1988 60.2368 13.4834 60.5287C13.768 60.8206 14.1554 60.9897 14.563 61H61.438C61.8456 60.9897 62.233 60.8206 62.5176 60.5287C62.8022 60.2368 62.9615 59.8452 62.9615 59.4375C62.9615 59.0298 62.8022 58.6383 62.5176 58.3464C62.233 58.0545 61.8456 57.8853 61.438 57.875H59.875V41.7C60.8066 41.2581 61.5943 40.5618 62.1473 39.6914C62.7002 38.8211 62.9958 37.8121 63 36.781ZM39.563 44.875C39.4601 44.5626 39.2611 44.2906 38.9946 44.0977C38.7281 43.9049 38.4075 43.8011 38.0785 43.8011C37.7495 43.8011 37.4289 43.9049 37.1624 44.0977C36.8959 44.2906 36.6969 44.5626 36.594 44.875C34.485 51.219 24.794 52.688 19.407 55.484V42.25C20.5921 42.0872 21.6905 41.5382 22.532 40.688C23.0412 41.2076 23.6489 41.6204 24.3196 41.9022C24.9903 42.1839 25.7105 42.3291 26.438 42.3291C27.1655 42.3291 27.8857 42.1839 28.5564 41.9022C29.2271 41.6204 29.8348 41.2076 30.344 40.688C30.8532 41.2077 31.461 41.6206 32.1318 41.9025C32.8026 42.1844 33.5229 42.3296 34.2505 42.3296C34.9781 42.3296 35.6984 42.1844 36.3692 41.9025C37.04 41.6206 37.6478 41.2077 38.157 40.688C38.6662 41.2077 39.274 41.6206 39.9448 41.9025C40.6156 42.1844 41.3359 42.3296 42.0635 42.3296C42.7911 42.3296 43.5114 42.1844 44.1822 41.9025C44.853 41.6206 45.4608 41.2077 45.97 40.688C46.4792 41.2077 47.087 41.6206 47.7578 41.9025C48.4286 42.1844 49.1489 42.3296 49.8765 42.3296C50.6041 42.3296 51.3244 42.1844 51.9952 41.9025C52.666 41.6206 53.2738 41.2077 53.783 40.688C54.6245 41.5383 55.7229 42.0873 56.908 42.25V55.531C51.281 52.547 41.609 51.266 39.563 44.875ZM16.125 35.375L38 23.7L59.875 35.375V36.781C59.8814 37.0928 59.8256 37.4028 59.7107 37.6928C59.5958 37.9828 59.4242 38.2469 59.206 38.4697C58.9877 38.6925 58.7272 38.8695 58.4397 38.9903C58.1522 39.1112 57.8434 39.1734 57.5315 39.1734C57.2196 39.1734 56.9108 39.1112 56.6233 38.9903C56.3358 38.8695 56.0753 38.6925 55.857 38.4697C55.6388 38.2469 55.4672 37.9828 55.3523 37.6928C55.2374 37.4028 55.1816 37.0928 55.188 36.781C55.1777 36.3735 55.0085 35.9861 54.7166 35.7015C54.4247 35.4168 54.0332 35.2576 53.6255 35.2576C53.2178 35.2576 52.8263 35.4168 52.5344 35.7015C52.2425 35.9861 52.0733 36.3735 52.063 36.781C52.0694 37.0928 52.0136 37.4028 51.8987 37.6928C51.7838 37.9828 51.6122 38.2469 51.394 38.4697C51.1757 38.6925 50.9152 38.8695 50.6277 38.9903C50.3402 39.1112 50.0314 39.1734 49.7195 39.1734C49.4076 39.1734 49.0989 39.1112 48.8113 38.9903C48.5238 38.8695 48.2633 38.6925 48.045 38.4697C47.8268 38.2469 47.6552 37.9828 47.5403 37.6928C47.4254 37.4028 47.3696 37.0928 47.376 36.781C47.376 36.3666 47.2114 35.9692 46.9184 35.6762C46.6253 35.3831 46.2279 35.2185 45.8135 35.2185C45.3991 35.2185 45.0017 35.3831 44.7086 35.6762C44.4156 35.9692 44.251 36.3666 44.251 36.781C44.251 37.4027 44.004 37.9989 43.5645 38.4385C43.1249 38.8781 42.5287 39.125 41.907 39.125C41.2853 39.125 40.6891 38.8781 40.2495 38.4385C39.81 37.9989 39.563 37.4027 39.563 36.781C39.5527 36.3735 39.3835 35.9861 39.0916 35.7015C38.7997 35.4168 38.4082 35.2576 38.0005 35.2576C37.5928 35.2576 37.2013 35.4168 36.9094 35.7015C36.6175 35.9861 36.4483 36.3735 36.438 36.781C36.4444 37.0928 36.3886 37.4028 36.2737 37.6928C36.1588 37.9828 35.9872 38.2469 35.769 38.4697C35.5507 38.6925 35.2902 38.8695 35.0027 38.9903C34.7151 39.1112 34.4064 39.1734 34.0945 39.1734C33.7826 39.1734 33.4739 39.1112 33.1863 38.9903C32.8988 38.8695 32.6383 38.6925 32.42 38.4697C32.2018 38.2469 32.0302 37.9828 31.9153 37.6928C31.8004 37.4028 31.7446 37.0928 31.751 36.781C31.751 36.3666 31.5864 35.9692 31.2934 35.6762C31.0003 35.3831 30.6029 35.2185 30.1885 35.2185C29.7741 35.2185 29.3767 35.3831 29.0836 35.6762C28.7906 35.9692 28.626 36.3666 28.626 36.781C28.626 37.4027 28.379 37.9989 27.9395 38.4385C27.4999 38.8781 26.9037 39.125 26.282 39.125C25.6603 39.125 25.0641 38.8781 24.6245 38.4385C24.185 37.9989 23.938 37.4027 23.938 36.781C23.938 36.3666 23.7734 35.9692 23.4804 35.6762C23.1873 35.3831 22.7899 35.2185 22.3755 35.2185C21.9611 35.2185 21.5637 35.3831 21.2706 35.6762C20.9776 35.9692 20.813 36.3666 20.813 36.781C20.8003 37.3942 20.5479 37.9779 20.1098 38.4071C19.6716 38.8362 19.0828 39.0766 18.4695 39.0766C17.8562 39.0766 17.2674 38.8362 16.8292 38.4071C16.3911 37.9779 16.1387 37.3942 16.126 36.781L16.125 35.375Z" stroke="white"/>
</g>
<defs>
<clipPath id="clip0_228_132">
<rect width="75" height="75" fill="white" transform="translate(0.5 0.5)"/>
</clipPath>
</defs>
</svg>
